<svg xmlns="http://www.w3.org/2000/svg" width="60" height="60" enable-background="new" viewBox="0 0 60 60"><path style="font-feature-settings:normal;font-variant-alternates:normal;font-variant-caps:normal;font-variant-east-asian:normal;font-variant-ligatures:normal;font-variant-numeric:normal;font-variant-position:normal;font-variation-settings:normal;inline-size:0;isolation:auto;mix-blend-mode:normal;shape-margin:0;shape-padding:0;text-decoration-color:#000;text-decoration-line:none;text-decoration-style:solid;text-indent:0;text-orientation:mixed;text-transform:none" d="m43 8c-4.9587 0-9 4.0416-9 9 1.22e-4 4.0443 2.7624 7.4118 6.5508 8.5117-2.4601 7.0635-7.9729 12.577-15.037 15.037-1.0997-3.7887-4.4687-6.5507-8.5137-6.5508-4.9587 0-9 4.0397-9 8.998 0 4.957 4.0392 8.9978 8.9961 9 19.036 0.27764 34.72-14.946 35.004-33.982a1.0001 1.0001 0 0 0 0-0.013672v-1c0-4.9584-4.0413-9-9-9zm0 2c3.8779 0 7 3.1226 7 7v0.98438c-0.26808 17.959-15.023 32.28-32.984 32.012a1.0001 1.0001 0 0 0-0.015625 0c-3.8779 0-7-3.1226-7-7s3.1221-6.998 7-6.998c3.5017 1.05e-4 6.4523 2.5691 6.9336 6.0371a1.0001 1.0001 0 0 0 1.2812 0.81836c8.4528-2.5716 15.071-9.1885 17.643-17.641a1.0001 1.0001 0 0 0-0.82031-1.2812c-3.4685-0.48127-6.037-3.4304-6.0371-6.9316 0-3.8774 3.1221-7 7-7z" color="#000"/></svg>